<?xml version="1.0" standalone="no"?>
<!DOCTYPE svg PUBLIC "-//W3C//DTD SVG 20010904//EN"
 "http://www.w3.org/TR/2001/REC-SVG-20010904/DTD/svg10.dtd">
<svg version="1.0" xmlns="http://www.w3.org/2000/svg"
 width="231.000000pt" height="231.000000pt" viewBox="0 0 231.000000 231.000000"
 preserveAspectRatio="xMidYMid meet">
<metadata>
Created by potrace 1.14, written by Peter Selinger 2001-2017
</metadata>
<g transform="translate(0.000000,231.000000) scale(0.100000,-0.100000)"
fill="#000000" stroke="none">
<path d="M1106 2289 c-23 -33 0 -79 39 -79 26 0 55 29 52 52 -7 47 -64 64 -91
27z"/>
<path d="M1312 2284 c-28 -20 -28 -58 0 -78 12 -9 26 -16 30 -16 14 0 48 39
48 55 0 16 -34 55 -48 55 -4 0 -18 -7 -30 -16z"/>
<path d="M917 2269 c-18 -25 -11 -56 15 -70 27 -14 57 -2 69 28 19 51 -53 87
-84 42z"/>
<path d="M1491 2231 c-11 -11 -18 -25 -17 -33 7 -35 20 -48 45 -48 33 0 46 9
53 37 12 46 -47 78 -81 44z"/>
<path d="M736 2225 c-20 -21 -21 -49 0 -69 21 -22 47 -20 69 4 41 46 -26 108
-69 65z"/>
<path d="M1667 2152 c-34 -37 -15 -82 33 -82 51 0 69 55 28 84 -29 21 -41 20
-61 -2z"/>
<path d="M568 2149 c-21 -12 -24 -59 -6 -77 19 -19 55 -14 72 10 20 29 20 34
-4 58 -22 22 -37 24 -62 9z"/>
<path d="M1825 2044 c-19 -20 -16 -63 6 -77 23 -14 67 0 74 24 8 26 -19 69
-45 69 -10 0 -26 -7 -35 -16z"/>
<path d="M407 2032 c-36 -39 -7 -88 46 -80 32 5 46 52 22 78 -23 25 -47 26
-68 2z"/>
<path d="M1955 1896 c-13 -19 -14 -29 -6 -45 23 -43 84 -34 93 13 10 52 -58
76 -87 32z"/>
<path d="M266 1891 c-13 -14 -14 -24 -6 -45 12 -32 34 -42 64 -28 29 13 38 45
19 71 -18 26 -54 27 -77 2z"/>
<path d="M2072 1750 c-33 -31 -10 -80 38 -80 42 0 60 50 29 81 -24 24 -40 24
-67 -1z"/>
<path d="M161 1734 c-11 -14 -17 -33 -14 -44 12 -45 77 -49 92 -7 12 32 2 55
-30 66 -25 8 -31 7 -48 -15z"/>
<path d="M612 1669 c-115 -70 -123 -248 -16 -323 22 -15 67 -45 101 -66 34
-21 69 -50 79 -65 42 -64 34 -153 -16 -198 -29 -25 -39 -29 -77 -24 -57 6 -88
36 -104 97 -9 35 -17 47 -28 45 -9 -2 -26 -4 -37 -4 -20 -1 -21 -4 -13 -46 22
-116 94 -173 205 -162 115 12 169 78 169 207 0 111 -20 137 -182 240 -77 48
-96 76 -95 137 2 59 27 95 76 107 45 12 81 -11 110 -68 16 -33 22 -36 48 -32
16 2 32 6 34 8 9 10 -19 77 -46 110 -48 57 -147 75 -208 37z"/>
<path d="M980 1305 l0 -376 38 3 37 3 0 157 c0 86 3 159 6 163 4 3 42 7 85 8
62 2 87 7 116 25 77 48 112 191 70 284 -38 84 -84 105 -239 107 l-113 2 0
-376z m256 273 c51 -51 43 -186 -14 -227 -21 -14 -43 -18 -97 -17 l-69 1 -1
138 0 139 77 -4 c68 -3 81 -6 104 -30z"/>
<path d="M1536 1663 c-8 -26 -49 -186 -117 -453 -33 -129 -62 -243 -65 -252
-4 -13 4 -19 32 -27 21 -6 39 -9 40 -8 1 1 14 55 29 120 l27 117 103 0 103 0
18 -77 c34 -148 35 -153 44 -158 4 -3 22 0 39 6 22 8 30 16 27 28 -5 16 -95
370 -142 556 -45 175 -39 165 -89 165 -33 0 -45 -4 -49 -17z m89 -251 c19 -83
38 -158 41 -167 5 -13 -7 -15 -79 -15 l-85 0 14 63 c43 186 66 278 70 275 2
-2 19 -72 39 -156z"/>
<path d="M2161 1584 c-26 -18 -27 -55 -3 -76 37 -33 93 3 76 48 -12 35 -45 47
-73 28z"/>
<path d="M76 1559 c-23 -33 0 -79 39 -79 42 0 64 51 35 80 -26 26 -55 25 -74
-1z"/>
<path d="M2205 1390 c-24 -27 -13 -68 22 -76 33 -9 57 6 61 38 6 50 -49 76
-83 38z"/>
<path d="M35 1376 c-26 -26 -25 -51 3 -73 22 -18 39 -16 61 6 25 25 17 65 -15
80 -21 9 -28 8 -49 -13z"/>
<path d="M2232 1204 c-44 -30 -20 -89 35 -82 38 4 55 49 28 78 -22 24 -33 25
-63 4z"/>
<path d="M16 1184 c-31 -30 -9 -84 34 -84 22 0 50 26 50 46 0 48 -51 71 -84
38z"/>
<path d="M2216 1017 c-18 -15 -22 -35 -12 -64 12 -37 66 -37 83 0 10 22 1 66
-14 68 -4 0 -16 2 -25 4 -9 2 -24 -2 -32 -8z"/>
<path d="M32 998 c-15 -15 -16 -60 0 -76 18 -18 53 -14 74 9 17 19 17 23 3 47
-16 30 -57 40 -77 20z"/>
<path d="M2168 829 c-22 -12 -24 -62 -4 -79 23 -18 59 -8 75 22 14 24 14 28
-3 47 -21 23 -41 26 -68 10z"/>
<path d="M85 810 c-21 -23 -19 -53 5 -75 38 -35 96 17 71 63 -14 27 -57 33
-76 12z"/>
<path d="M901 743 c-22 -26 -27 -29 -15 -10 15 24 15 27 1 27 -9 0 -21 -9 -27
-19 -5 -11 -20 -21 -32 -23 l-23 -3 24 -14 c14 -8 36 -10 57 -6 29 5 36 12 41
36 3 18 15 34 27 39 l21 9 -21 0 c-12 1 -34 -15 -53 -36z"/>
<path d="M1370 767 c17 -9 24 -20 22 -35 -2 -16 4 -25 23 -32 40 -15 62 -12
85 12 22 24 26 38 10 38 -5 0 -10 -7 -10 -15 0 -22 -16 -18 -45 11 -32 32 -44
24 -20 -13 14 -23 10 -21 -20 10 -20 20 -44 37 -53 37 -12 0 -9 -4 8 -13z"/>
<path d="M984 758 c3 -10 -2 -25 -11 -33 -20 -21 -12 -29 12 -11 16 12 17 17
7 37 -7 13 -10 16 -8 7z"/>
<path d="M1126 753 l-29 -15 32 -21 c31 -19 34 -19 69 -3 l35 17 -29 20 c-34
22 -39 22 -78 2z"/>
<path d="M1325 750 c-7 -22 11 -53 26 -44 5 3 3 12 -5 20 -9 8 -13 21 -10 29
4 8 4 15 1 15 -3 0 -9 -9 -12 -20z"/>
<path d="M806 751 c-4 -7 -5 -15 -2 -18 9 -9 19 4 14 18 -4 11 -6 11 -12 0z"/>
<path d="M2091 653 c-27 -18 -27 -55 -1 -78 38 -35 96 17 71 63 -14 26 -45 33
-70 15z"/>
<path d="M162 638 c-28 -28 -2 -88 38 -88 23 0 50 26 50 48 -1 43 -59 69 -88
40z"/>
<path d="M680 595 c8 -10 11 -36 8 -75 l-4 -61 39 3 c44 3 65 25 52 54 -4 11
-7 29 -6 42 4 35 -17 52 -61 52 -35 0 -39 -2 -28 -15z m68 -27 c-5 -34 -38
-37 -38 -4 0 20 5 26 21 26 15 0 20 -5 17 -22z m10 -70 c3 -13 -3 -18 -22 -18
-20 0 -26 5 -26 21 0 15 5 20 22 17 13 -2 24 -11 26 -20z"/>
<path d="M800 600 c0 -5 5 -10 10 -10 6 0 10 -25 10 -55 0 -30 -4 -55 -10 -55
-5 0 -10 -4 -10 -10 0 -5 14 -10 30 -10 17 0 30 5 30 10 0 6 -4 10 -10 10 -5
0 -10 25 -10 55 0 30 5 55 10 55 6 0 10 5 10 10 0 6 -13 10 -30 10 -16 0 -30
-4 -30 -10z"/>
<path d="M900 535 l0 -75 45 0 c25 0 45 5 45 10 0 6 -16 10 -35 10 -28 0 -35
4 -35 20 0 16 7 20 30 20 17 0 30 5 30 10 0 6 -13 10 -30 10 -25 0 -30 4 -30
25 0 22 4 25 35 25 19 0 35 5 35 10 0 6 -20 10 -45 10 l-45 0 0 -75z"/>
<path d="M1000 535 c0 -43 4 -75 10 -75 6 0 10 26 11 58 l1 57 26 -57 c37 -81
52 -76 52 18 0 54 -3 75 -12 72 -8 -3 -11 -24 -10 -59 l2 -54 -28 57 c-38 80
-52 76 -52 -17z"/>
<path d="M1120 535 l0 -75 45 0 c25 0 45 5 45 10 0 6 -16 10 -35 10 -28 0 -35
4 -35 20 0 16 7 20 30 20 17 0 30 5 30 10 0 6 -13 10 -30 10 -25 0 -30 4 -30
25 0 25 7 29 48 25 12 -1 22 3 22 9 0 6 -20 11 -45 11 l-45 0 0 -75z"/>
<path d="M1232 598 c-22 -22 -13 -48 23 -65 19 -9 35 -23 35 -30 0 -22 -29
-27 -50 -8 -16 15 -20 15 -20 4 0 -22 21 -39 46 -39 53 0 57 70 4 88 -16 6
-30 16 -30 22 0 17 29 23 45 10 18 -15 27 -10 17 7 -11 18 -56 25 -70 11z"/>
<path d="M1330 600 c0 -5 9 -10 20 -10 18 0 20 -7 20 -65 0 -37 4 -65 10 -65
6 0 10 28 10 65 0 50 3 65 14 65 8 0 18 5 21 10 4 6 -13 10 -44 10 -28 0 -51
-4 -51 -10z"/>
<path d="M1453 540 c-12 -39 -17 -72 -13 -75 5 -3 11 4 15 15 9 28 51 26 66
-2 22 -41 21 0 -1 67 -12 36 -27 65 -34 65 -7 0 -22 -31 -33 -70z m50 0 c4
-15 0 -20 -15 -20 -14 0 -18 5 -14 16 3 9 6 20 6 25 0 17 17 1 23 -21z"/>
<path d="M1550 535 c0 -43 4 -75 10 -75 6 0 10 14 10 30 0 39 22 39 50 -1 27
-37 37 -32 16 9 -14 26 -14 31 -1 36 18 7 20 47 3 64 -7 7 -29 12 -50 12 l-38
0 0 -75z m75 30 c0 -14 -8 -21 -27 -23 -24 -3 -28 0 -28 23 0 23 4 26 28 23
19 -2 27 -9 27 -23z"/>
<path d="M1980 493 c-48 -34 6 -111 55 -79 11 7 21 23 23 35 7 43 -41 70 -78
44z"/>
<path d="M281 484 c-38 -27 -22 -81 26 -89 25 -4 53 23 53 50 0 39 -46 62 -79
39z"/>
<path d="M1848 359 c-21 -12 -24 -59 -6 -77 13 -13 47 -16 64 -4 24 15 26 50
5 71 -23 23 -37 25 -63 10z"/>
<path d="M418 348 c-24 -20 -28 -44 -12 -67 20 -27 59 -27 78 1 20 29 20 34
-4 58 -23 23 -40 25 -62 8z"/>
<path d="M1692 244 c-30 -21 -29 -59 3 -80 23 -15 27 -15 50 0 32 21 33 59 3
80 -12 9 -25 16 -28 16 -3 0 -16 -7 -28 -16z"/>
<path d="M570 230 c-24 -24 -25 -43 -4 -64 18 -19 55 -21 72 -4 18 18 15 59
-5 74 -25 19 -40 17 -63 -6z"/>
<path d="M747 159 c-20 -12 -23 -62 -4 -76 27 -21 48 -22 67 -3 23 23 25 39 8
63 -16 21 -48 28 -71 16z"/>
<path d="M1511 156 c-21 -25 -9 -69 21 -80 50 -17 89 42 52 78 -19 20 -58 21
-73 2z"/>
<path d="M930 100 c-34 -34 -17 -80 28 -80 33 0 52 16 52 45 -1 47 -47 68 -80
35z"/>
<path d="M1324 99 c-17 -19 -17 -23 -3 -47 28 -50 89 -37 89 19 0 47 -53 65
-86 28z"/>
<path d="M1116 81 c-16 -17 -16 -23 -4 -48 24 -51 108 -41 108 13 0 50 -69 73
-104 35z"/>
</g>
</svg>
